grf
version=1
nRows=6
nColumns=37
inDegrees=no
endheader
time	ground_force_1_vx	ground_force_1_vy	ground_force_1_vz	ground_force_1_px	ground_force_1_py	ground_force_1_pz	ground_moment_1_mx	ground_moment_1_my	ground_moment_1_mz	ground_force_2_vx	ground_force_2_vy	ground_force_2_vz	ground_force_2_px	ground_force_2_py	ground_force_2_pz	ground_moment_2_mx	ground_moment_2_my	ground_moment_2_mz	ground_force_3_vx	ground_force_3_vy	ground_force_3_vz	ground_force_3_px	ground_force_3_py	ground_force_3_pz	ground_moment_3_mx	ground_moment_3_my	ground_moment_3_mz	ground_force_4_vx	ground_force_4_vy	ground_force_4_vz	ground_force_4_px	ground_force_4_py	ground_force_4_pz	ground_moment_4_mx	ground_moment_4_my	ground_moment_4_mz
      0.00000000	      0.00000000	     -0.00000000	      0.00000000	      0.00000000	      0.00000000	      0.00000000	      0.00000000	      0.00000000	      0.00000000	     -4.37443209	     23.51680374	   -247.23829651	   -313.85902878	  -1120.82550834	      0.00000000	      0.00000000	      0.00000000	    467.29787590	     -2.71244112	    -30.73890293	   -292.64230347	   -320.28164873	   -705.22273303	      0.00000000	      0.00000000	     -0.00000000	   -266.20703048	      0.00000000	     -0.00000000	      0.00000000	      0.00000000	      0.00000000	      0.00000000	      0.00000000	      0.00000000	      0.00000000
      0.01000000	      0.00000000	     -0.00000000	      0.00000000	      0.00000000	      0.00000000	      0.00000000	      0.00000000	      0.00000000	      0.00000000	     -2.98979712	     22.62931633	   -241.66902161	   -313.48737295	  -1122.80429802	      0.00000000	      0.00000000	      0.00000000	    414.72430975	     -3.91312805	    -30.64369375	   -285.95520020	   -320.90912669	   -705.64310861	      0.00000000	     -0.00000000	     -0.00000000	      2.32635067	      0.00000000	     -0.00000000	      0.00000000	      0.00000000	      0.00000000	      0.00000000	      0.00000000	      0.00000000	      0.00000000
      0.02000000	      0.00000000	     -0.00000000	      0.00000000	      0.00000000	      0.00000000	      0.00000000	      0.00000000	      0.00000000	      0.00000000	     -2.89225054	     22.32510757	   -230.18093872	   -315.37480081	  -1118.15147107	      0.00000000	      0.00000000	      0.00000000	    370.52138061	     -5.30858265	    -29.75525642	   -280.01959229	   -321.56864704	   -705.25102803	      0.00000000	      0.00000000	     -0.00000000	    -47.47062535	      0.00000000	     -0.00000000	      0.00000000	      0.00000000	      0.00000000	      0.00000000	      0.00000000	      0.00000000	      0.00000000
      0.03000000	      0.00000000	     -0.00000000	      0.00000000	      0.00000000	      0.00000000	      0.00000000	      0.00000000	      0.00000000	      0.00000000	     -3.42736650	     22.63071442	   -226.10177612	   -314.35190716	  -1122.10130123	      0.00000000	      0.00000000	      0.00000000	    253.83326332	     -5.87773116	    -29.04353879	   -273.82467651	   -323.30827190	   -705.76513154	      0.00000000	      0.00000000	     -0.00000000	   -114.38107146	      0.00000000	     -0.00000000	      0.00000000	      0.00000000	      0.00000000	      0.00000000	      0.00000000	      0.00000000	      0.00000000
      0.04000000	      0.00000000	     -0.00000000	      0.00000000	      0.00000000	      0.00000000	      0.00000000	      0.00000000	      0.00000000	      0.00000000	     -4.84688282	     22.85457611	   -223.09286499	   -317.14916651	  -1120.39395842	      0.00000000	      0.00000000	     -0.00000000	    -38.25746784	     -7.22261126	    -28.96951262	   -270.79589844	   -324.11684519	   -704.70249268	      0.00000000	      0.00000000	     -0.00000000	    -13.74428872	      0.00000000	     -0.00000000	      0.00000000	      0.00000000	      0.00000000	      0.00000000	      0.00000000	      0.00000000	      0.00000000
      0.05000000	      0.00000000	     -0.00000000	      0.00000000	      0.00000000	      0.00000000	      0.00000000	      0.00000000	      0.00000000	      0.00000000	     -4.75823212	     23.99110222	   -222.47157288	   -317.17475288	  -1120.36231689	      0.00000000	      0.00000000	     -0.00000000	   -191.88372411	     -7.79163396	    -29.80817570	   -270.24334717	   -325.18067088	   -705.67913647	      0.00000000	      0.00000000	     -0.00000000	    -64.42393000	      0.00000000	     -0.00000000	      0.00000000	      0.00000000	      0.00000000	      0.00000000	      0.00000000	      0.00000000	      0.00000000
